<svg width="36" height="35" viewBox="0 0 36 35" fill="none" xmlns="http://www.w3.org/2000/svg">
<circle cx="18.25" cy="17.5" r="17.5" fill="white"/>
<path d="M24.6114 11.6638C23.4476 11.1213 22.1876 10.7275 20.8751 10.5C20.8636 10.4997 20.8521 10.5018 20.8416 10.5064C20.831 10.5109 20.8215 10.5177 20.8139 10.5263C20.6564 10.815 20.4726 11.1913 20.3501 11.48C18.958 11.27 17.5422 11.27 16.1501 11.48C16.0276 11.1825 15.8439 10.815 15.6776 10.5263C15.6689 10.5088 15.6426 10.5 15.6164 10.5C14.3039 10.7275 13.0526 11.1213 11.8801 11.6638C11.8714 11.6638 11.8626 11.6725 11.8539 11.6813C9.47385 15.2425 8.8176 18.7075 9.14135 22.1375C9.14135 22.155 9.1501 22.1725 9.1676 22.1813C10.7426 23.3363 12.2564 24.0363 13.7526 24.5C13.7789 24.5088 13.8051 24.5 13.8139 24.4825C14.1639 24.0013 14.4789 23.4938 14.7501 22.96C14.7676 22.925 14.7501 22.89 14.7151 22.8813C14.2164 22.6888 13.7439 22.4613 13.2801 22.1988C13.2451 22.1813 13.2451 22.1288 13.2714 22.1025C13.3676 22.0325 13.4639 21.9538 13.5601 21.8838C13.5776 21.8663 13.6039 21.8663 13.6214 21.875C16.6314 23.2488 19.8776 23.2488 22.8526 21.875C22.8701 21.8663 22.8964 21.8663 22.9139 21.8838C23.0101 21.9625 23.1064 22.0325 23.2026 22.1113C23.2376 22.1375 23.2376 22.19 23.1939 22.2075C22.7389 22.4788 22.2576 22.6975 21.7589 22.89C21.7239 22.8988 21.7151 22.9425 21.7239 22.9688C22.0039 23.5025 22.3189 24.01 22.6601 24.4913C22.6864 24.5 22.7126 24.5088 22.7389 24.5C24.2439 24.0363 25.7576 23.3363 27.3326 22.1813C27.3501 22.1725 27.3589 22.155 27.3589 22.1375C27.7439 18.1738 26.7201 14.735 24.6463 11.6813C24.6376 11.6725 24.6289 11.6638 24.6114 11.6638ZM15.2051 20.0463C14.3039 20.0463 13.5514 19.215 13.5514 18.1913C13.5514 17.1675 14.2864 16.3363 15.2051 16.3363C16.1326 16.3363 16.8676 17.1763 16.8589 18.1913C16.8589 19.215 16.1239 20.0463 15.2051 20.0463ZM21.3039 20.0463C20.4026 20.0463 19.6501 19.215 19.6501 18.1913C19.6501 17.1675 20.3851 16.3363 21.3039 16.3363C22.2314 16.3363 22.9664 17.1763 22.9576 18.1913C22.9576 19.215 22.2314 20.0463 21.3039 20.0463Z" fill="#7A307A"/>
</svg>
