<svg width="36" height="35" viewBox="0 0 36 35" fill="none" xmlns="http://www.w3.org/2000/svg">
<circle cx="18.25" cy="17.5" r="17.5" fill="white"/>
<path d="M18.25 12.5786C17.2765 12.5786 16.325 12.8673 15.5156 13.4081C14.7062 13.9489 14.0753 14.7176 13.7028 15.617C13.3303 16.5163 13.2328 17.5059 13.4227 18.4607C13.6126 19.4154 14.0814 20.2924 14.7697 20.9808C15.458 21.6691 16.335 22.1379 17.2898 22.3278C18.2445 22.5177 19.2342 22.4202 20.1335 22.0477C21.0329 21.6752 21.8016 21.0443 22.3424 20.2349C22.8832 19.4255 23.1719 18.4739 23.1719 17.5005C23.1705 16.1955 22.6515 14.9444 21.7288 14.0217C20.8061 13.099 19.5549 12.58 18.25 12.5786ZM18.25 20.7817C17.601 20.7817 16.9666 20.5893 16.427 20.2287C15.8874 19.8682 15.4669 19.3557 15.2185 18.7562C14.9702 18.1566 14.9052 17.4968 15.0318 16.8603C15.1584 16.2238 15.4709 15.6392 15.9298 15.1803C16.3887 14.7214 16.9734 14.4089 17.6099 14.2823C18.2464 14.1557 18.9061 14.2207 19.5057 14.469C20.1052 14.7174 20.6177 15.1379 20.9783 15.6775C21.3388 16.2171 21.5312 16.8515 21.5312 17.5005C21.5312 18.3707 21.1855 19.2053 20.5702 19.8207C19.9548 20.436 19.1202 20.7817 18.25 20.7817ZM23.1719 6.83643H13.3281C11.8057 6.83805 10.3461 7.44356 9.26958 8.52007C8.19307 9.59659 7.58757 11.0562 7.58594 12.5786V22.4224C7.58757 23.9448 8.19307 25.4044 9.26958 26.4809C10.3461 27.5574 11.8057 28.1629 13.3281 28.1646H23.1719C24.6943 28.1629 26.1539 27.5574 27.2304 26.4809C28.3069 25.4044 28.9124 23.9448 28.9141 22.4224V12.5786C28.9124 11.0562 28.3069 9.59659 27.2304 8.52007C26.1539 7.44356 24.6943 6.83805 23.1719 6.83643ZM27.2734 22.4224C27.2734 23.5102 26.8413 24.5534 26.0721 25.3226C25.3029 26.0918 24.2597 26.5239 23.1719 26.5239H13.3281C12.2403 26.5239 11.1971 26.0918 10.4279 25.3226C9.65869 24.5534 9.22656 23.5102 9.22656 22.4224V12.5786C9.22656 11.4908 9.65869 10.4476 10.4279 9.67837C11.1971 8.90918 12.2403 8.47705 13.3281 8.47705H23.1719C24.2597 8.47705 25.3029 8.90918 26.0721 9.67837C26.8413 10.4476 27.2734 11.4908 27.2734 12.5786V22.4224ZM24.8125 12.1685C24.8125 12.4118 24.7403 12.6497 24.6051 12.8521C24.4699 13.0544 24.2778 13.2121 24.0529 13.3053C23.8281 13.3984 23.5807 13.4228 23.342 13.3753C23.1033 13.3278 22.884 13.2106 22.712 13.0385C22.5399 12.8664 22.4227 12.6472 22.3752 12.4085C22.3277 12.1698 22.3521 11.9224 22.4452 11.6976C22.5384 11.4727 22.6961 11.2806 22.8984 11.1454C23.1008 11.0102 23.3387 10.938 23.582 10.938C23.9084 10.938 24.2213 11.0676 24.4521 11.2984C24.6829 11.5291 24.8125 11.8421 24.8125 12.1685Z" fill="#7A307A"/>
</svg>
