<svg width="36" height="35" viewBox="0 0 36 35" fill="none" xmlns="http://www.w3.org/2000/svg">
<circle cx="17.75" cy="17.5" r="17.5" fill="white"/>
<path fill-rule="evenodd" clip-rule="evenodd" d="M15.5004 14.8479H18.7501V16.4666C19.2182 15.5356 20.4187 14.6991 22.2221 14.6991C25.6793 14.6991 26.5 16.5524 26.5 19.9526V26.25H23V20.727C23 18.7906 22.5319 17.6986 21.3401 17.6986C19.6873 17.6986 19.0004 18.8755 19.0004 20.7261V26.25H15.5004V14.8479ZM9.49875 26.1012H12.9988V14.6991H9.49875V26.1012ZM13.5001 10.9813C13.5003 11.2746 13.4421 11.5651 13.329 11.8358C13.2159 12.1064 13.0501 12.3519 12.8412 12.558C12.4181 12.9785 11.8453 13.2139 11.2488 13.2125C10.6532 13.2121 10.0818 12.9773 9.658 12.5589C9.44993 12.3521 9.28471 12.1063 9.1718 11.8356C9.05889 11.5649 9.00051 11.2746 9 10.9813C9 10.3889 9.23625 9.82188 9.65887 9.40363C10.0823 8.98464 10.654 8.74974 11.2496 8.75C11.8464 8.75 12.4186 8.98538 12.8412 9.40363C13.263 9.82188 13.5001 10.3889 13.5001 10.9813Z" fill="#7A307A"/>
</svg>
