<svg width="36" height="35" viewBox="0 0 36 35" fill="none" xmlns="http://www.w3.org/2000/svg">
<circle cx="18" cy="17.5" r="17.5" fill="white"/>
<path fill-rule="evenodd" clip-rule="evenodd" d="M24.9651 8.53125C24.2012 8.53125 23.5336 8.95038 23.1818 9.57075L20.0318 8.92413C19.8834 8.89372 19.729 8.91562 19.5948 8.98612C19.4607 9.05662 19.3551 9.17136 19.2959 9.31088C18.9363 10.1561 18.3973 11.438 17.9467 12.5353C17.7489 13.0183 17.5669 13.468 17.4252 13.8303C15.7469 13.9108 14.1947 14.3465 12.9128 15.0412C12.6719 14.7134 12.3596 14.4446 11.9995 14.2552C11.6394 14.0659 11.241 13.9609 10.8343 13.9482C10.4276 13.9356 10.0234 14.0156 9.65225 14.1822C9.28107 14.3488 8.95265 14.5977 8.69184 14.9099C8.43103 15.2222 8.24466 15.5897 8.14683 15.9846C8.049 16.3795 8.04227 16.7915 8.12716 17.1894C8.21204 17.5873 8.38632 17.9607 8.6368 18.2813C8.88728 18.6019 9.2074 18.8614 9.57294 19.04C9.49595 19.3808 9.45721 19.7292 9.45744 20.0786C9.45744 21.8636 10.4646 23.4404 12.0133 24.5534C13.5621 25.6672 15.6804 26.3419 18.0001 26.3419C20.3188 26.3419 22.4372 25.6672 23.9868 24.5534C25.5356 23.4404 26.5427 21.8645 26.5427 20.0786C26.5427 19.7242 26.5033 19.3769 26.4272 19.0409C26.7921 18.8619 27.1116 18.6024 27.3615 18.2819C27.6114 17.9614 27.7851 17.5883 27.8697 17.1907C27.9542 16.7932 27.9473 16.3816 27.8494 15.9872C27.7516 15.5927 27.5653 15.2256 27.3048 14.9137C27.0443 14.6018 26.7162 14.3531 26.3455 14.1866C25.9748 14.02 25.5711 13.9399 25.1648 13.9523C24.7586 13.9646 24.3605 14.0692 24.0006 14.258C23.6407 14.4468 23.3284 14.7149 23.0873 15.0421C21.8711 14.3815 20.4107 13.9563 18.8313 13.8451L19.1612 13.0331C19.5278 12.1398 19.9548 11.1213 20.2943 10.318L22.9351 10.8605C22.9887 11.2504 23.1534 11.6167 23.4095 11.9156C23.6657 12.2144 24.0024 12.4332 24.3796 12.5458C24.7567 12.6584 25.1583 12.6601 25.5364 12.5506C25.9145 12.4411 26.253 12.2251 26.5116 11.9283C26.7702 11.6316 26.938 11.2667 26.9948 10.8772C27.0516 10.4878 26.9951 10.0901 26.832 9.73192C26.6689 9.37369 26.4061 9.06998 26.0751 8.85707C25.744 8.64416 25.3587 8.53105 24.9651 8.53125ZM24.2283 10.5805C24.2283 10.385 24.306 10.1975 24.4442 10.0592C24.5825 9.92098 24.77 9.84331 24.9655 9.84331C25.161 9.84331 25.3485 9.92098 25.4868 10.0592C25.625 10.1975 25.7027 10.385 25.7027 10.5805C25.7027 10.776 25.625 10.9635 25.4868 11.1018C25.3485 11.24 25.161 11.3177 24.9655 11.3177C24.77 11.3177 24.5825 11.24 24.4442 11.1018C24.306 10.9635 24.2283 10.776 24.2283 10.5805ZM25.9634 17.7992C25.5522 17.0266 24.9432 16.3354 24.1924 15.757C24.3193 15.6037 24.478 15.4798 24.6576 15.394C24.8372 15.3083 25.0333 15.2626 25.2323 15.2603C25.4313 15.258 25.6284 15.2991 25.8099 15.3807C25.9915 15.4623 26.153 15.5824 26.2834 15.7328C26.4138 15.8831 26.5099 16.0601 26.5649 16.2513C26.62 16.4425 26.6328 16.6435 26.6023 16.8402C26.5719 17.0368 26.4989 17.2245 26.3886 17.3901C26.2783 17.5558 26.1332 17.6954 25.9634 17.7992ZM11.8077 15.757C11.6809 15.6034 11.5221 15.4793 11.3425 15.3934C11.1628 15.3074 10.9666 15.2616 10.7675 15.2593C10.5683 15.2569 10.3711 15.2979 10.1894 15.3796C10.0077 15.4612 9.84606 15.5814 9.71562 15.7319C9.58518 15.8824 9.48911 16.0596 9.4341 16.251C9.3791 16.4424 9.36648 16.6435 9.39713 16.8403C9.42777 17.0371 9.50095 17.2248 9.61155 17.3904C9.72216 17.556 9.86754 17.6955 10.0376 17.7992C10.4488 17.0266 11.0569 16.3354 11.8077 15.757ZM21.0949 20.0795C21.4309 20.0795 21.753 19.9461 21.9905 19.7085C22.2281 19.471 22.3615 19.1488 22.3615 18.8129C22.3615 18.477 22.2281 18.1549 21.9905 17.9173C21.753 17.6798 21.4309 17.5464 21.0949 17.5464C20.7591 17.5464 20.4371 17.6798 20.1997 17.9172C19.9622 18.1547 19.8288 18.4767 19.8288 18.8125C19.8288 19.1483 19.9622 19.4703 20.1997 19.7078C20.4371 19.9452 20.7591 20.0786 21.0949 20.0786V20.0795ZM16.1669 18.8125C16.1669 19.1484 16.0335 19.4706 15.796 19.7081C15.5584 19.9456 15.2363 20.0791 14.9004 20.0791C14.5645 20.0791 14.2423 19.9456 14.0048 19.7081C13.7673 19.4706 13.6338 19.1484 13.6338 18.8125C13.6338 18.4766 13.7673 18.1544 14.0048 17.9169C14.2423 17.6794 14.5645 17.5459 14.9004 17.5459C15.2363 17.5459 15.5584 17.6794 15.796 17.9169C16.0335 18.1544 16.1669 18.4766 16.1669 18.8125ZM15.2438 21.5504C15.0968 21.4639 14.922 21.4381 14.7563 21.4783C14.5906 21.5185 14.447 21.6216 14.3561 21.7658C14.2651 21.9101 14.2338 22.084 14.2688 22.2509C14.3039 22.4178 14.4025 22.5644 14.5438 22.6599L14.8457 22.8506C15.7889 23.4456 16.8814 23.7613 17.9966 23.7613C19.1118 23.7613 20.2042 23.4456 21.1474 22.8506L21.4493 22.6607C21.5223 22.6148 21.5855 22.5549 21.6353 22.4845C21.6851 22.4141 21.7206 22.3346 21.7397 22.2505C21.7588 22.1664 21.7611 22.0794 21.7466 21.9944C21.732 21.9094 21.7009 21.8281 21.6549 21.7551C21.609 21.6822 21.5491 21.619 21.4787 21.5691C21.4083 21.5193 21.3288 21.4838 21.2447 21.4648C21.1606 21.4457 21.0736 21.4433 20.9886 21.4579C20.9036 21.4724 20.8223 21.5035 20.7493 21.5495L20.4474 21.7402C19.7138 22.2031 18.864 22.4487 17.9966 22.4487C17.1291 22.4487 16.2794 22.2031 15.5457 21.7402L15.2438 21.5504Z" fill="#7A307A"/>
</svg>
