<svg width="36" height="35" viewBox="0 0 36 35" fill="none" xmlns="http://www.w3.org/2000/svg">
<circle cx="18" cy="17.5" r="17.5" fill="white"/>
<path d="M18.3208 25.0884C17.2361 25.0884 16.5124 24.5761 15.8662 24.125C15.4068 23.7996 14.9766 23.4906 14.4689 23.4049C14.2272 23.3633 13.9823 23.3432 13.737 23.3448C13.3068 23.3448 12.965 23.4095 12.7217 23.4587C12.5667 23.486 12.4373 23.5116 12.3352 23.5116C12.2295 23.5116 12.0955 23.4824 12.0435 23.3037C11.998 23.1579 11.9697 23.0194 11.9415 22.8854C11.8685 22.5481 11.8075 22.3412 11.6808 22.3203C10.3236 22.1134 9.51151 21.8007 9.35292 21.4307C9.34016 21.3906 9.32467 21.3487 9.32467 21.3168C9.31555 21.2037 9.39758 21.1099 9.51151 21.0889C10.5879 20.9112 11.555 20.3379 12.3717 19.3954C13.006 18.6635 13.315 17.9562 13.3433 17.8797C13.3433 17.8705 13.3515 17.8705 13.3515 17.8705C13.5064 17.5506 13.5383 17.2781 13.4445 17.0548C13.2695 16.6355 12.6925 16.4569 12.2988 16.3347C12.1976 16.3074 12.1119 16.2746 12.039 16.25C11.7017 16.116 11.1403 15.8307 11.2141 15.4369C11.267 15.1526 11.6443 14.9493 11.9533 14.9493C12.039 14.9493 12.1119 14.9621 12.1721 14.9949C12.5184 15.1526 12.831 15.2337 13.099 15.2337C13.4326 15.2337 13.5912 15.1079 13.6313 15.0678C13.6228 14.8875 13.6122 14.7073 13.5994 14.5273C13.5174 13.2832 13.4244 11.7392 13.8182 10.8541C15.0012 8.20452 17.5123 7.99215 18.256 7.99215L18.5805 7.98486H18.6261C19.3689 7.98486 21.88 8.19176 23.0631 10.8459C23.4614 11.731 23.3639 13.2795 23.2818 14.5191L23.2736 14.5802C23.2663 14.7461 23.2536 14.9047 23.2463 15.0678C23.2864 15.0997 23.4322 15.2218 23.733 15.2255C23.9937 15.2182 24.2781 15.1325 24.6025 14.9858C24.6924 14.947 24.7891 14.9265 24.8869 14.9256C25.0008 14.9256 25.1148 14.953 25.2123 14.9858H25.2205C25.493 15.0879 25.6717 15.2784 25.6717 15.478C25.6799 15.6648 25.5331 15.9492 24.8386 16.2299C24.7657 16.2573 24.68 16.291 24.5788 16.3147C24.1924 16.4332 23.6154 16.62 23.4322 17.0347C23.331 17.2535 23.3712 17.5342 23.5261 17.8514C23.5261 17.8587 23.5343 17.8587 23.5343 17.8587C23.579 17.9726 24.7529 20.6386 27.3661 21.0734C27.4195 21.0824 27.4678 21.1104 27.5022 21.1523C27.5365 21.1942 27.5546 21.2471 27.5529 21.3013C27.5535 21.3422 27.5438 21.3827 27.5247 21.4188C27.3661 21.7925 26.5613 22.097 25.1959 22.3084C25.0701 22.3285 25.009 22.5363 24.9361 22.8735C24.9072 23.0141 24.8734 23.1536 24.835 23.2919C24.7939 23.4259 24.7083 23.4988 24.5615 23.4988H24.5424C24.4124 23.4962 24.283 23.4813 24.1559 23.4541C23.8219 23.3829 23.4812 23.3475 23.1396 23.3484C22.8947 23.349 22.6503 23.3694 22.4087 23.4095C21.9046 23.4915 21.4698 23.8041 21.0105 24.1295C20.356 24.5761 19.6287 25.0884 18.5523 25.0884H18.3208Z" fill="#7A307A"/>
</svg>
