<svg width="36" height="35" viewBox="0 0 36 35" fill="none" xmlns="http://www.w3.org/2000/svg">
<circle cx="18" cy="17.5" r="17.5" fill="white"/>
<g clip-path="url(#clip0_223_1130)">
<path d="M24.2815 16.5413C24.1677 16.4872 24.0529 16.4354 23.937 16.386C23.7347 12.6519 21.6948 10.5147 18.2692 10.4928H18.2233C16.1736 10.4928 14.4706 11.3678 13.4217 12.9592L15.3051 14.251C16.0883 13.062 17.3176 12.8083 18.2243 12.8083H18.255C19.3826 12.816 20.2347 13.1441 20.7848 13.7839C21.1862 14.2488 21.4542 14.893 21.5865 15.7045C20.5167 15.5308 19.4306 15.4784 18.349 15.5481C15.0929 15.7363 12.9984 17.635 13.1395 20.2742C13.2106 21.613 13.8778 22.7647 15.0175 23.5172C15.98 24.1538 17.2214 24.4644 18.512 24.3944C20.215 24.3003 21.5504 23.6506 22.4823 22.4628C23.1911 21.5605 23.6384 20.3913 23.8364 18.918C24.6479 19.408 25.2495 20.0522 25.582 20.8266C26.1475 22.1445 26.1803 24.3091 24.4139 26.0733C22.8662 27.6199 21.0058 28.2881 18.1948 28.3089C15.0765 28.287 12.7173 27.2863 11.1839 25.3372C9.74778 23.5106 9.00622 20.8747 8.97888 17.5005C9.00622 14.1263 9.74778 11.4892 11.1839 9.66377C12.7173 7.71471 15.0754 6.71502 18.1948 6.69205C21.335 6.71393 23.7347 7.72018 25.3272 9.67799C26.1081 10.6394 26.6965 11.8469 27.0848 13.2545L29.292 12.6661C28.8217 10.9325 28.0812 9.43955 27.075 8.20033C25.0329 5.68799 22.047 4.40174 18.2025 4.37549H18.1872C14.347 4.40174 11.3972 5.69346 9.41419 8.21455C7.64888 10.4567 6.73888 13.5794 6.70825 17.4917V17.5092C6.73888 21.4227 7.64888 24.5431 9.4131 26.7864C11.3961 29.3075 14.3481 30.5992 18.1872 30.6255H18.2025C21.615 30.6014 24.0201 29.7078 26.0009 27.7281C28.5942 25.1381 28.5165 21.8919 27.6612 19.8991C27.0487 18.4695 25.8795 17.3091 24.2815 16.5413ZM18.3895 22.0811C16.9622 22.162 15.4801 21.5211 15.4058 20.1495C15.3511 19.1324 16.1298 17.996 18.477 17.8614C18.7461 17.845 19.0097 17.8385 19.2689 17.8385C20.122 17.8385 20.9183 17.9205 21.6434 18.0791C21.3733 21.4566 19.7873 22.0045 18.3895 22.0811Z" fill="#7A307A"/>
</g>
<defs>
<clipPath id="clip0_223_1130">
<rect width="26.25" height="26.25" fill="white" transform="translate(4.875 4.375)"/>
</clipPath>
</defs>
</svg>
