<svg width="36" height="35" viewBox="0 0 36 35" fill="none" xmlns="http://www.w3.org/2000/svg">
<circle cx="17.75" cy="17.5" r="17.5" fill="white"/>
<path d="M22.7811 10.7411C22.0334 9.88758 21.6214 8.79143 21.6217 7.65674H18.242V21.2192C18.2159 21.9532 17.9061 22.6484 17.3777 23.1584C16.8493 23.6684 16.1436 23.9535 15.4092 23.9536C13.8561 23.9536 12.5654 22.6849 12.5654 21.1099C12.5654 19.2286 14.3811 17.8177 16.2514 18.3974V14.9411C12.4779 14.438 9.1748 17.3692 9.1748 21.1099C9.1748 24.7521 12.1936 27.3442 15.3982 27.3442C18.8326 27.3442 21.6217 24.5552 21.6217 21.1099V14.2302C22.9921 15.2144 24.6375 15.7424 26.3248 15.7396V12.3599C26.3248 12.3599 24.2686 12.4583 22.7811 10.7411Z" fill="#7A307A"/>
</svg>
