<svg width="35" height="35" viewBox="0 0 35 35" fill="none" xmlns="http://www.w3.org/2000/svg">
<circle cx="17.5" cy="17.5" r="17.5" fill="white"/>
<path d="M28.9403 10.938C28.0981 11.3208 27.1903 11.5724 26.2497 11.6927C27.2122 11.113 27.956 10.1942 28.306 9.08955C27.3981 9.63643 26.3919 10.0192 25.331 10.238C24.4669 9.29736 23.2528 8.75049 21.8747 8.75049C19.3044 8.75049 17.2044 10.8505 17.2044 13.4427C17.2044 13.8146 17.2481 14.1755 17.3247 14.5146C13.431 14.3177 9.96377 12.4474 7.65596 9.61455C7.25127 10.3036 7.02158 11.113 7.02158 11.9661C7.02158 13.5958 7.84189 15.0396 9.11064 15.8599C8.33408 15.8599 7.61221 15.6411 6.97783 15.313V15.3458C6.97783 17.6208 8.59658 19.5239 10.7403 19.9505C10.0521 20.1388 9.3295 20.165 8.62939 20.0271C8.92646 20.9594 9.50826 21.7753 10.293 22.3599C11.0777 22.9446 12.026 23.2686 13.0044 23.2864C11.3459 24.5994 9.29002 25.3091 7.17471 25.2989C6.80283 25.2989 6.43096 25.277 6.05908 25.2333C8.13721 26.5677 10.6091 27.3442 13.256 27.3442C21.8747 27.3442 26.6106 20.1911 26.6106 13.9896C26.6106 13.7817 26.6106 13.5849 26.5997 13.377C27.5185 12.7208 28.306 11.8896 28.9403 10.938Z" fill="#7A307A"/>
</svg>
