<svg width="35" height="35" viewBox="0 0 35 35" fill="none" xmlns="http://www.w3.org/2000/svg">
<circle cx="17.5" cy="17.5" r="17.5" fill="white"/>
<path d="M15.75 20.125L20.2912 17.5L15.75 14.875V20.125ZM25.865 13.2738C25.9788 13.685 26.0575 14.2362 26.11 14.9362C26.1712 15.6362 26.1975 16.24 26.1975 16.765L26.25 17.5C26.25 19.4163 26.11 20.825 25.865 21.7262C25.6462 22.5138 25.1388 23.0212 24.3512 23.24C23.94 23.3537 23.1875 23.4325 22.0325 23.485C20.895 23.5463 19.8538 23.5725 18.8913 23.5725L17.5 23.625C13.8337 23.625 11.55 23.485 10.6488 23.24C9.86125 23.0212 9.35375 22.5138 9.135 21.7262C9.02125 21.315 8.9425 20.7638 8.89 20.0638C8.82875 19.3638 8.8025 18.76 8.8025 18.235L8.75 17.5C8.75 15.5837 8.89 14.175 9.135 13.2738C9.35375 12.4863 9.86125 11.9788 10.6488 11.76C11.06 11.6463 11.8125 11.5675 12.9675 11.515C14.105 11.4537 15.1462 11.4275 16.1087 11.4275L17.5 11.375C21.1663 11.375 23.45 11.515 24.3512 11.76C25.1388 11.9788 25.6462 12.4863 25.865 13.2738Z" fill="#7A307A"/>
</svg>
