<?xml version="1.0" encoding="UTF-8"?>
<svg id="Layer_2" data-name="Layer 2" xmlns="http://www.w3.org/2000/svg" xmlns:xlink="http://www.w3.org/1999/xlink" viewBox="0 0 1201.98 927.69">
  <defs>
    <style>
      .cls-1 {
        fill: #5d7081;
      }

      .cls-1, .cls-2, .cls-3, .cls-4, .cls-5, .cls-6 {
        stroke-width: 0px;
      }

      .cls-7 {
        clip-path: url(#clippath-2);
      }

      .cls-8 {
        isolation: isolate;
      }

      .cls-2 {
        fill: none;
      }

      .cls-9 {
        clip-path: url(#clippath-1);
      }

      .cls-3 {
        fill: #fff;
      }

      .cls-4 {
        fill: #f8f8f8;
      }

      .cls-5 {
        fill: #e2e2e2;
      }

      .cls-10 {
        clip-path: url(#clippath);
      }

      .cls-6 {
        fill: #aaa;
      }
    </style>
    <clipPath id="clippath">
      <polygon class="cls-2" points="400.75 496.11 425.2 194.87 715.3 300.45 690.85 601.7 400.75 496.11"/>
    </clipPath>
    <clipPath id="clippath-1">
      <polygon class="cls-2" points="482.48 376.42 490.26 280.49 633.57 332.65 625.78 428.58 482.48 376.42"/>
    </clipPath>
    <clipPath id="clippath-2">
      <polygon class="cls-2" points="396.17 501.05 421.66 186.98 719.89 295.53 694.4 609.6 396.17 501.05"/>
    </clipPath>
  </defs>
  <g id="Layer_1-2" data-name="Layer 1">
    <g>
      <path class="cls-4" d="m325.01,903.12C105.92,847.5-50.08,619.35,14.86,370.18,79.8,121,308.97-1.63,588.27,41.33c279.3,42.96,273.06-82.88,463.06-26.55,142.84,42.35,165.71,114.77,143.13,380.18-22.59,265.41-199.88,457.82-360.6,508.24-175.82,55.15-508.84-.08-508.84-.08Z"/>
      <g>
        <path class="cls-5" d="m763.09,595.36v275.29h-406.58v-190.12h342.58s12.25,2.95,23.17-15.64l40.83-69.53Z"/>
        <polygon class="cls-6" points="861.33 516.3 763.09 595.36 454.74 595.36 454.74 516.3 861.33 516.3"/>
        <path class="cls-6" d="m850.09,617.29c-11.66,13.7-29.68,33.39-37.88,34.54-10.17,1.42-38.44-31.37-49.12-44.27v-12.2l39.61,42.26c5.36,5.72,14.24,6.35,20.35,1.43l27.04-21.76Z"/>
        <path class="cls-5" d="m861.33,608.24v183.35l-98.24,79.06v-263.09c10.68,12.9,38.95,45.69,49.12,44.27,8.2-1.15,26.22-20.84,37.88-34.54l11.24-9.05Z"/>
        <polygon class="cls-6" points="454.74 516.3 454.74 595.36 356.51 595.36 454.74 516.3"/>
        <path class="cls-5" d="m763.09,595.36l-40.83,69.53c-2.69,4.59-7.61,7.41-12.93,7.41h-371.8c-11.6,0-18.81-12.6-12.93-22.6l31.91-54.34h406.58Z"/>
        <path class="cls-5" d="m897.85,578.85l-36.52,29.39-38.28,30.81c-6.11,4.92-14.99,4.29-20.35-1.43l-39.61-42.26,98.24-79.06,38.06,40.61c5.97,6.37,5.26,16.47-1.54,21.94Z"/>
      </g>
      <path class="cls-6" d="m722.26,664.89c-10.92,18.59-14.61,24.82-23.17,27.64h-342.58v-20.23h352.82c5.32,0,10.24-2.82,12.93-7.41Z"/>
      <g>
        <path class="cls-1" d="m763.09,873.15h-406.58c-1.38,0-2.5-1.12-2.5-2.5v-175.41c0-1.38,1.12-2.5,2.5-2.5s2.5,1.12,2.5,2.5v172.91h404.08c1.38,0,2.5,1.12,2.5,2.5s-1.12,2.5-2.5,2.5Z"/>
        <path class="cls-1" d="m709.33,674.8c-1.38,0-2.5-1.12-2.5-2.5s1.12-2.5,2.5-2.5c4.41,0,8.54-2.37,10.77-6.17.7-1.19,2.23-1.59,3.42-.89,1.19.7,1.59,2.23.89,3.42-3.13,5.33-8.91,8.65-15.09,8.65Z"/>
        <path class="cls-1" d="m763.09,873.15c-.37,0-.74-.08-1.08-.25-.87-.42-1.42-1.29-1.42-2.25v-257.17c0-1.38,1.12-2.5,2.5-2.5s2.5,1.12,2.5,2.5v251.95l93.24-75.04v-167.15c0-1.38,1.12-2.5,2.5-2.5s2.5,1.12,2.5,2.5v168.35c0,.76-.34,1.47-.93,1.95l-98.24,79.06c-.45.36-1.01.55-1.57.55Z"/>
        <path class="cls-1" d="m454.74,597.86c-1.38,0-2.5-1.12-2.5-2.5v-67.41c0-1.38,1.12-2.5,2.5-2.5s2.5,1.12,2.5,2.5v67.41c0,1.38-1.12,2.5-2.5,2.5Z"/>
        <path class="cls-1" d="m356.52,597.86c-.73,0-1.46-.32-1.95-.93-.87-1.08-.7-2.65.38-3.52l98.23-79.06c.44-.36,1-.55,1.57-.55h406.59c1.38,0,2.5,1.12,2.5,2.5s-1.12,2.5-2.5,2.5h-405.71l-97.54,78.51c-.46.37-1.02.55-1.57.55Z"/>
        <path class="cls-1" d="m709.33,674.8h-371.8c-6.36,0-12.03-3.29-15.19-8.81-3.16-5.52-3.12-12.08.11-17.56l31.91-54.34c.45-.76,1.27-1.23,2.16-1.23h406.58c.9,0,1.72.48,2.17,1.26.45.78.44,1.73-.01,2.51l-40.83,69.53c-3.12,5.33-8.91,8.64-15.09,8.64Zm-351.39-76.94l-31.19,53.11c-2.3,3.91-2.33,8.6-.08,12.54,2.25,3.94,6.31,6.29,10.85,6.29h371.8c4.41,0,8.54-2.37,10.77-6.17l38.62-65.77h-400.78Z"/>
        <path class="cls-1" d="m813.67,644.84c-4.7,0-9.38-1.87-12.79-5.51l-39.61-42.26c-.48-.51-.72-1.19-.67-1.88.05-.69.38-1.34.93-1.77l98.24-79.06c1.02-.82,2.5-.72,3.39.24l38.06,40.61c3.32,3.54,5.03,8.35,4.69,13.19-.34,4.84-2.71,9.36-6.49,12.4l-74.8,60.2c-3.2,2.58-7.08,3.84-10.95,3.84Zm-46.91-49.22l37.77,40.29c4.45,4.74,11.89,5.27,16.96,1.19l74.8-60.2h0c2.74-2.2,4.39-5.35,4.63-8.86.25-3.51-.94-6.86-3.35-9.42l-36.47-38.92-94.33,75.92Z"/>
      </g>
      <g>
        <g class="cls-8">
          <g class="cls-10">
            <path class="cls-3" d="m688.61,290.74l-236.71-86.16c-14.72-5.36-28.23,9.17-30.11,32.35l-10.73,132.16c-1.88,23.19,8.56,46.4,23.28,51.76l147.37,53.64,3.39,7.84,41.39,95.56c.28.36.6.61.93.73.23.09.47.11.71.06.61-.12,1.1-.67,1.38-1.51l14.77-73.3,1.24-6.16,25.52,9.29c14.72,5.36,28.22-9.14,30.11-32.33l10.73-132.16c1.88-23.19-8.56-46.43-23.28-51.78"/>
          </g>
        </g>
        <g class="cls-8">
          <g class="cls-9">
            <g>
              <path class="cls-1" d="m493.48,343.16l21.76-33.66-3.28,40.38-18.48-6.73m32.89-48.37l-10.97-3.99-29.72,46.1-1.35,16.65,26.39,9.6-1.79,22.04,9.82,3.57,1.79-22.04,8.47,3.08,1.09-13.46-8.47-3.08,4.75-58.48"/>
              <path class="cls-1" d="m556.01,388.36c-3.52-1.28-5.97-5.11-7.33-11.47-1.36-6.35-1.6-15.03-.71-26.01.89-11.02,2.49-19.07,4.78-24.14,2.3-5.08,5.2-6.97,8.73-5.69,3.5,1.27,5.92,5.08,7.26,11.4,1.34,6.33,1.56,15.08.65,26.22-.9,11.06-2.47,19.1-4.72,24.1-2.25,5-5.14,6.86-8.66,5.58m6.62-81.53c-7-2.55-12.61-.42-16.86,6.38-4.25,6.78-7.01,18.08-8.29,33.85-1.28,15.78-.46,28.38,2.48,37.77,2.93,9.41,7.89,15.38,14.89,17.93,6.97,2.54,12.58.41,16.82-6.39,4.25-6.78,7.01-18.08,8.29-33.85,1.28-15.78.46-28.38-2.48-37.77-2.93-9.41-7.88-15.38-14.85-17.92"/>
              <path class="cls-1" d="m592.12,379.07l21.75-33.66-3.28,40.38-18.47-6.72m32.89-48.37l-10.97-3.99-29.72,46.1-1.35,16.65,26.39,9.61-1.79,22.04,9.82,3.57,1.79-22.04,8.46,3.08,1.09-13.46-8.46-3.08,4.75-58.48"/>
            </g>
          </g>
        </g>
        <g class="cls-8">
          <g class="cls-7">
            <path class="cls-1" d="m434.34,420.85c-14.72-5.36-25.16-28.57-23.28-51.76l10.73-132.16c1.88-23.19,15.39-37.71,30.11-32.35l236.71,86.16c14.72,5.36,25.16,28.6,23.28,51.78l-10.73,132.16c-1.88,23.19-15.39,37.69-30.11,32.33l-25.52-9.29-1.24,6.16-14.77,73.3c-.28.84-.78,1.38-1.38,1.51-.24.05-.48.02-.71-.06-.33-.12-.65-.37-.93-.73l-41.39-95.56-3.39-7.84-147.37-53.64m254.78-136.52l-236.71-86.16c-16.97-6.17-32.52,10.55-34.69,37.28l-10.73,132.16c-2.17,26.72,9.86,53.48,26.83,59.66l145.64,53.01,43.89,101.35.14.31.17.27c.93,1.43,2.05,2.4,3.22,2.82.7.26,1.43.32,2.15.18,1.92-.38,3.48-2.18,4.28-4.93l.04-.16,15.06-74.73,22.11,8.05c16.97,6.17,32.52-10.55,34.69-37.27l10.73-132.16c2.17-26.73-9.86-53.49-26.82-59.67"/>
          </g>
        </g>
      </g>
    </g>
  </g>
</svg>