<svg width="100" height="100" viewBox="0 0 100 100" fill="none" xmlns="http://www.w3.org/2000/svg">
<path d="M46.875 32.6958C42.975 33.7625 40.625 36.7583 40.625 39.5833C40.625 42.4083 42.975 45.4041 46.875 46.4666V32.6958ZM53.125 53.5333V67.3C57.025 66.2375 59.375 63.2416 59.375 60.4166C59.375 57.5916 57.025 54.5958 53.125 53.5333Z" fill="#01F801"/>
<path fill-rule="evenodd" clip-rule="evenodd" d="M91.6667 50.0002C91.6667 73.0127 73.0125 91.6668 50 91.6668C26.9875 91.6668 8.33333 73.0127 8.33333 50.0002C8.33333 26.9877 26.9875 8.3335 50 8.3335C73.0125 8.3335 91.6667 26.9877 91.6667 50.0002ZM50 21.8752C50.8288 21.8752 51.6237 22.2044 52.2097 22.7905C52.7958 23.3765 53.125 24.1714 53.125 25.0002V26.321C59.9167 27.5377 65.625 32.6418 65.625 39.5835C65.625 40.4123 65.2958 41.2072 64.7097 41.7932C64.1237 42.3793 63.3288 42.7085 62.5 42.7085C61.6712 42.7085 60.8763 42.3793 60.2903 41.7932C59.7042 41.2072 59.375 40.4123 59.375 39.5835C59.375 36.7585 57.025 33.7627 53.125 32.696V47.1543C59.9167 48.371 65.625 53.4752 65.625 60.4168C65.625 67.3585 59.9167 72.4627 53.125 73.6793V75.0002C53.125 75.829 52.7958 76.6238 52.2097 77.2099C51.6237 77.7959 50.8288 78.1252 50 78.1252C49.1712 78.1252 48.3763 77.7959 47.7903 77.2099C47.2042 76.6238 46.875 75.829 46.875 75.0002V73.6793C40.0833 72.4627 34.375 67.3585 34.375 60.4168C34.375 59.588 34.7042 58.7932 35.2903 58.2071C35.8763 57.6211 36.6712 57.2918 37.5 57.2918C38.3288 57.2918 39.1237 57.6211 39.7097 58.2071C40.2958 58.7932 40.625 59.588 40.625 60.4168C40.625 63.2418 42.975 66.2377 46.875 67.3002V52.846C40.0833 51.6293 34.375 46.5252 34.375 39.5835C34.375 32.6418 40.0833 27.5377 46.875 26.321V25.0002C46.875 24.1714 47.2042 23.3765 47.7903 22.7905C48.3763 22.2044 49.1712 21.8752 50 21.8752Z" fill="#01F801"/>
</svg>
