<svg width="20" height="21" viewBox="0 0 20 21" fill="none" xmlns="http://www.w3.org/2000/svg">
<g clip-path="url(#clip0_119_149)">
<g clip-path="url(#clip1_119_149)">
<path d="M19.174 10.2106C19.174 9.43171 19.1121 8.86334 18.9782 8.27393H10.2725V11.7894H15.3825C15.2796 12.663 14.7232 13.9787 13.4869 14.8628L13.4695 14.9805L16.2221 17.159L16.4128 17.1784C18.1643 15.5259 19.174 13.0945 19.174 10.2106Z" fill="#4285F4"/>
<path d="M10.2726 19.4729C12.7761 19.4729 14.8779 18.6308 16.413 17.1783L13.487 14.8627C12.7041 15.4205 11.6532 15.81 10.2726 15.81C7.82061 15.81 5.73948 14.1575 4.99762 11.8735L4.88888 11.883L2.02669 14.1459L1.98926 14.2522C3.51404 17.3467 6.64606 19.4729 10.2726 19.4729Z" fill="#34A853"/>
<path d="M4.9974 11.8736C4.80165 11.2842 4.68836 10.6526 4.68836 10C4.68836 9.34742 4.80165 8.71592 4.9871 8.12651L4.98191 8.00098L2.08385 5.70166L1.98903 5.74774C1.3606 7.03185 1 8.47386 1 10C1 11.5262 1.3606 12.9682 1.98903 14.2523L4.9974 11.8736Z" fill="#FBBC05"/>
<path d="M10.2726 4.19016C12.0138 4.19016 13.1882 4.95851 13.8579 5.6006L16.4748 2.99029C14.8676 1.46411 12.7761 0.527344 10.2726 0.527344C6.64606 0.527344 3.51404 2.65346 1.98926 5.7479L4.98732 8.12667C5.73949 5.84267 7.82061 4.19016 10.2726 4.19016Z" fill="#EB4335"/>
</g>
</g>
<defs>
<clipPath id="clip0_119_149">
<rect width="20" height="20" fill="white" transform="translate(0 0.5)"/>
</clipPath>
<clipPath id="clip1_119_149">
<rect x="1" y="0.5" width="18.1739" height="19" rx="9.08696" fill="white"/>
</clipPath>
</defs>
</svg>
