<svg width="45" height="45" viewBox="0 0 45 45" fill="none" xmlns="http://www.w3.org/2000/svg">
<g id="ant-design:reload-time-outline">
<path id="Vector" d="M23.5591 11.9971H21.4453C21.252 11.9971 21.0937 12.1553 21.0937 12.3486V24.4468C21.0937 24.561 21.1465 24.6665 21.2388 24.7324L28.5029 30.0366C28.6611 30.1509 28.8809 30.1201 28.9951 29.9619L30.252 28.2481C30.3706 28.0855 30.3354 27.8657 30.1772 27.7559L23.9106 23.2251V12.3486C23.9106 12.1553 23.7524 11.9971 23.5591 11.9971ZM33.2183 15.3018L40.1089 16.9849C40.3286 17.0376 40.5439 16.8706 40.5439 16.6465L40.5791 9.54932C40.5791 9.25489 40.2407 9.0879 40.0122 9.27247L33.0864 14.6821C33.0341 14.7226 32.9942 14.7771 32.9715 14.8392C32.9487 14.9013 32.9439 14.9686 32.9577 15.0334C32.9714 15.0981 33.0032 15.1576 33.0493 15.2051C33.0954 15.2526 33.154 15.2861 33.2183 15.3018ZM40.5879 28.5337L38.0962 27.6768C38.0093 27.647 37.9142 27.6524 37.8313 27.6918C37.7483 27.7312 37.6841 27.8015 37.6523 27.8877C37.5688 28.1118 37.481 28.3315 37.3887 28.5513C36.6064 30.4014 35.4858 32.0669 34.0532 33.4951C32.6365 34.9162 30.9575 36.049 29.1094 36.8306C27.1948 37.64 25.1368 38.0555 23.0581 38.0523C20.9575 38.0523 18.9228 37.6436 17.0068 36.8306C15.1587 36.049 13.4797 34.9162 12.063 33.4951C10.6348 32.0669 9.51416 30.4014 8.72754 28.5513C7.92253 26.6356 7.5101 24.5779 7.51465 22.5C7.51465 20.3994 7.92334 18.3604 8.73633 16.4443C9.51855 14.5942 10.6392 12.9287 12.0718 11.5005C13.4885 10.0794 15.1675 8.94664 17.0156 8.16504C18.9229 7.35206 20.9619 6.94336 23.0625 6.94336C25.1631 6.94336 27.1978 7.35206 29.1138 8.16504C30.9619 8.94664 32.6409 10.0794 34.0576 11.5005C34.5059 11.9531 34.9277 12.4233 35.3144 12.9199L37.9424 10.8633C34.4839 6.44239 29.1006 3.59913 23.0537 3.60352C12.5244 3.60792 4.06934 12.1597 4.1748 22.6934C4.28027 33.0425 12.6958 41.3965 23.0625 41.3965C31.2144 41.3965 38.1577 36.2285 40.8032 28.9907C40.8691 28.8062 40.7725 28.5996 40.5879 28.5337Z" fill="white"/>
</g>
</svg>
