<?xml version="1.0" encoding="utf-8"?>
<!-- Generator: Adobe Illustrator 26.5.0, SVG Export Plug-In . SVG Version: 6.00 Build 0)  -->
<svg version="1.1" id="Layer_1" xmlns="http://www.w3.org/2000/svg" xmlns:xlink="http://www.w3.org/1999/xlink" x="0px" y="0px"
	 viewBox="0 0 278 198" style="enable-background:new 0 0 278 198;" xml:space="preserve">
<style type="text/css">
	.st0{fill:#373737;}
	.st1{opacity:0.2;clip-path:url(#SVGID_00000137815910419426090160000013806900559482648455_);}
	.st2{fill:#aaa;}
</style>
<path class="st0" d="M0,0.8h278v196.9H0V0.8z"/>
<g>
	<defs>
		<rect id="SVGID_1_" x="87" y="47" width="104" height="104"/>
	</defs>
	<clipPath id="SVGID_00000104700571001961394810000013821965004571638668_">
		<use xlink:href="#SVGID_1_"  style="overflow:visible;"/>
	</clipPath>
	<g style="opacity:0.2;clip-path:url(#SVGID_00000104700571001961394810000013821965004571638668_);">
		<path class="st2" d="M132.5,63.3c0,4.3-1.7,8.4-4.8,11.5c-3,3-7.2,4.8-11.5,4.8c-4.3,0-8.4-1.7-11.5-4.8c-3-3-4.8-7.2-4.8-11.5
			c0-4.3,1.7-8.4,4.8-11.5c3-3,7.2-4.8,11.5-4.8c4.3,0,8.4,1.7,11.5,4.8C130.8,54.8,132.5,58.9,132.5,63.3L132.5,63.3z M160,89.6
			c-0.6-0.3-1.3-0.4-2-0.3c-0.7,0.1-1.3,0.4-1.8,0.9l-24.1,30.6l-17.3-18c-0.6-0.4-1.4-0.6-2.1-0.5c-0.7,0.1-1.4,0.4-2,0.9L87,131.5
			v13c0,1.7,0.7,3.4,1.9,4.6c1.2,1.2,2.9,1.9,4.6,1.9h91c0.9,0,1.7-0.2,2.5-0.5c0.8-0.3,1.5-0.8,2.1-1.4c0.6-0.6,1.1-1.3,1.4-2.1
			c0.3-0.8,0.5-1.6,0.5-2.5v-29.3L160,89.6L160,89.6z"/>
	</g>
</g>
</svg>
