<svg width="100" height="100" viewBox="0 0 100 100" fill="none" xmlns="http://www.w3.org/2000/svg">
<g clip-path="url(#clip0_5_1641)">
<path d="M87.5 41.6665C73.9562 42.452 60.9305 47.1471 50 55.1832C39.0696 47.1471 26.0439 42.452 12.5 41.6665V53.9998C10.2862 54.0043 8.16472 54.8877 6.60204 56.4558C5.03936 58.024 4.16338 60.1485 4.1667 62.3623V66.5457C4.1667 71.1665 12.5 75.7457 12.5 75.7457V84.1082C23.5667 84.82 34.2395 88.4893 43.4042 94.7332C45.7183 96.339 47.9219 98.0985 50 99.9998C52.0782 98.0985 54.2818 96.339 56.5959 94.7332C65.7606 88.4893 76.4333 84.82 87.5 84.1082V74.9082C89.7139 74.9038 91.8353 74.0204 93.398 72.4522C94.9607 70.8841 95.8367 68.7595 95.8334 66.5457V62.3623C95.8367 60.1485 94.9607 58.024 93.398 56.4558C91.8353 54.8877 89.7139 54.0043 87.5 53.9998V41.6665ZM50 89.2582C41.3583 82.925 31.3811 78.6548 20.8334 76.7748V51.1498C28.917 52.7783 36.592 56.0115 43.4042 60.6582C45.7183 62.264 47.9219 64.0235 50 65.9248C52.0782 64.0235 54.2818 62.264 56.5959 60.6582C63.4077 56.01 71.0827 52.7754 79.1667 51.1457V76.7748C68.619 78.6548 58.6418 82.925 50 89.2582ZM45.8334 33.3332H54.1667V37.4998H45.8334V33.3332ZM45.8334 16.6665H54.1667V20.8332H45.8334V16.6665Z" fill="#01F801"/>
<path d="M45.8333 41.6666H54.1667V45.8333H45.8333V41.6666ZM37.5 20.8333C38.6051 20.8333 39.6649 20.3943 40.4463 19.6129C41.2277 18.8315 41.6667 17.7717 41.6667 16.6666C41.6705 16.1238 41.5665 15.5857 41.3606 15.0835C41.1546 14.5812 40.8509 14.125 40.4671 13.7411C40.0833 13.3573 39.627 13.0536 39.1248 12.8477C38.6226 12.6418 38.0844 12.5377 37.5417 12.5416C36.9972 12.5389 36.4576 12.6434 35.9535 12.8492C35.4495 13.055 34.9909 13.3581 34.604 13.7412C33.8226 14.5148 33.3805 15.5671 33.375 16.6666C33.3695 17.7662 33.801 18.8229 34.5745 19.6043C35.3481 20.3857 36.4004 20.8278 37.5 20.8333Z" fill="#01F801"/>
<path d="M62.5 20.8333C64.8012 20.8333 66.6666 18.9679 66.6666 16.6667C66.6666 14.3655 64.8012 12.5 62.5 12.5C60.1988 12.5 58.3333 14.3655 58.3333 16.6667C58.3333 18.9679 60.1988 20.8333 62.5 20.8333Z" fill="#01F801"/>
<path d="M66.6666 33.3333H33.3333C30.0191 33.33 26.8416 32.012 24.4981 29.6685C22.1546 27.325 20.8366 24.1475 20.8333 20.8333V12.5C20.8366 9.18581 22.1546 6.00831 24.4981 3.66482C26.8416 1.32133 30.0191 0.00330923 33.3333 0L66.6666 0C69.9808 0.00330923 73.1583 1.32133 75.5018 3.66482C77.8453 6.00831 79.1633 9.18581 79.1666 12.5V20.8333C79.1633 24.1475 77.8453 27.325 75.5018 29.6685C73.1583 32.012 69.9808 33.33 66.6666 33.3333ZM33.3333 8.33333C32.2286 8.33444 31.1694 8.77378 30.3883 9.55494C29.6071 10.3361 29.1677 11.3953 29.1666 12.5V20.8333C29.1677 21.9381 29.6071 22.9972 30.3883 23.7784C31.1694 24.5596 32.2286 24.9989 33.3333 25H66.6666C67.7714 24.9989 68.8305 24.5596 69.6117 23.7784C70.3929 22.9972 70.8322 21.9381 70.8333 20.8333V12.5C70.8322 11.3953 70.3929 10.3361 69.6117 9.55494C68.8305 8.77378 67.7714 8.33444 66.6666 8.33333H33.3333Z" fill="#01F801"/>
</g>
<defs>
<clipPath id="clip0_5_1641">
<rect width="100" height="100" fill="white"/>
</clipPath>
</defs>
</svg>
