<svg width="250" height="100" viewBox="0 0 250 100" fill="none" xmlns="http://www.w3.org/2000/svg">
<g id="GC Logo" clip-path="url(#clip0_5_579)">
<g id="Group">
<path id="Vector" d="M38.1962 0.00229761L0.00585938 37.5034L12.736 50.0038L50.9263 12.5027L38.1962 0.00229761Z" fill="#01F801"/>
<path id="Vector_2" d="M89.1132 50.0023L50.9229 87.5034L63.653 100.004L101.843 62.5027L89.1132 50.0023Z" fill="#01F801"/>
<path id="Vector_3" d="M12.735 50.0016L0.00488281 62.502L38.1952 100.003L50.9254 87.5027L12.735 50.0016Z" fill="#01F801"/>
<path id="Vector_4" d="M68.9663 19.7771L63.6506 25.003L38.188 49.9999L50.9193 62.5015L76.3819 37.4984L89.1069 49.9999L101.838 37.4984L76.3819 12.5015L68.9663 19.7771Z" fill="#01F801"/>
</g>
<g id="Group_2">
<path id="Vector_5" d="M123.527 46.6577C122.292 45.9806 121.333 45.0204 120.65 43.7708C119.966 42.5274 119.628 41.0932 119.628 39.4682V33.793C119.628 32.168 119.966 30.7338 120.65 29.4904C121.333 28.247 122.292 27.2868 123.539 26.6035C124.787 25.9264 126.222 25.5879 127.858 25.5879H131.375C132.948 25.5879 134.328 25.8957 135.525 26.5112C136.716 27.1267 137.644 28.0008 138.308 29.1334C138.966 30.266 139.298 31.5709 139.298 33.0482H135.023C135.023 31.9402 134.691 31.0415 134.02 30.3645C133.35 29.6874 132.472 29.3488 131.381 29.3488H127.865C126.693 29.3488 125.752 29.7735 125.038 30.6291C124.323 31.4847 123.972 32.5988 123.972 33.9776V39.2836C123.972 40.6624 124.323 41.7765 125.025 42.6321C125.727 43.4877 126.655 43.9124 127.808 43.9124H131.513C132.579 43.9124 133.462 43.5308 134.165 42.7737C134.867 42.0104 135.218 41.0686 135.218 39.936V39.2589H129.125V35.5596H139.493V39.9422C139.493 41.4441 139.161 42.7798 138.49 43.9493C137.819 45.1189 136.879 46.036 135.663 46.6946C134.447 47.3532 133.068 47.6795 131.513 47.6795H127.808C126.197 47.6795 124.774 47.3409 123.533 46.6638L123.527 46.6577Z" fill="white"/>
<path id="Vector_6" d="M154.713 42.4044H146.482L144.533 47.4333H140.007L148.613 25.8403H150.563C151.923 25.8403 152.845 26.4559 153.327 27.6931L161.15 47.4333H156.625L154.706 42.4044H154.713ZM147.642 38.8281H153.547L150.626 31.0539H150.594L147.642 38.8281Z" fill="white"/>
<path id="Vector_7" d="M163.138 25.834H166.999L174.195 38.6679L181.235 25.834H185.096V47.427H180.852V33.7621L176.233 41.9672C175.919 42.5212 175.599 42.9213 175.273 43.1552C174.947 43.3891 174.578 43.5122 174.158 43.5122H172.967L167.375 33.7621V47.427H163.131V25.834H163.138Z" fill="white"/>
<path id="Vector_8" d="M189.315 46.6268C188.751 46.0913 188.469 45.3957 188.469 44.5278V25.834H205.243V29.5334H192.8V34.5315H204.297V38.2309H192.8V43.7215H205.243V47.4208H191.515C190.613 47.4208 189.879 47.1562 189.315 46.6206V46.6268Z" fill="white"/>
<path id="Vector_9" d="M123.477 73.3965C122.254 72.7194 121.302 71.7591 120.631 70.5096C119.96 69.2662 119.628 67.832 119.628 66.207V60.5318C119.628 58.9067 119.966 57.4725 120.65 56.2292C121.333 54.9858 122.292 54.0255 123.539 53.3423C124.787 52.6652 126.222 52.3267 127.858 52.3267H131.187C132.76 52.3267 134.139 52.6529 135.337 53.3115C136.528 53.9701 137.456 54.8873 138.12 56.0753C138.778 57.2571 139.11 58.6297 139.11 60.1932H134.835C134.835 58.9621 134.503 57.965 133.832 57.214C133.162 56.4631 132.284 56.0876 131.193 56.0876H127.865C126.693 56.0876 125.752 56.5123 125.038 57.3679C124.323 58.2235 123.972 59.3376 123.972 60.7164V66.0223C123.972 67.4011 124.317 68.5153 125.006 69.3709C125.696 70.2264 126.611 70.6512 127.739 70.6512H131.131C132.24 70.6512 133.149 70.2326 133.845 69.3893C134.547 68.546 134.898 67.4381 134.898 66.0593H139.173C139.173 67.7274 138.841 69.1923 138.17 70.4542C137.499 71.716 136.559 72.6947 135.343 73.3841C134.127 74.0735 132.723 74.4183 131.131 74.4183H127.739C126.128 74.4183 124.705 74.0797 123.483 73.4026L123.477 73.3965Z" fill="white"/>
<path id="Vector_10" d="M142.295 73.3661C141.731 72.8305 141.449 72.135 141.449 71.2671V52.5732H158.223V56.2726H145.78V61.2708H157.277V64.9701H145.78V70.4607H158.223V74.1601H144.495C143.593 74.1601 142.859 73.8954 142.295 73.3599V73.3661Z" fill="white"/>
<path id="Vector_11" d="M160.862 52.5732H164.724L175.28 67.2538V52.5732H179.524V74.1662H175.662L165.106 59.4857V74.1662H160.862V52.5732Z" fill="white"/>
<path id="Vector_12" d="M188.581 56.2726H181.604V52.5732H199.89V56.2726H192.913V74.1662H188.575V56.2726H188.581Z" fill="white"/>
<path id="Vector_13" d="M201.99 52.5732H213.674C215.58 52.5732 217.116 53.078 218.275 54.0875C219.435 55.0969 220.018 56.4203 220.018 58.0638V60.2244C220.018 61.2954 219.711 62.2248 219.09 63.0189C218.47 63.8129 217.579 64.41 216.407 64.8224V64.884C217.078 65.3148 217.586 65.8073 217.93 66.3674C218.275 66.9275 218.614 67.6908 218.952 68.6818L220.714 74.1724H216.219L214.552 69.0511C214.282 68.1648 213.9 67.5061 213.423 67.0753C212.941 66.6444 212.345 66.429 211.631 66.429H206.321V74.1724H201.983V52.5794L201.99 52.5732ZM212.859 62.7542C213.737 62.7542 214.433 62.5203 214.934 62.0587C215.436 61.597 215.686 60.9938 215.686 60.2551V58.2485C215.686 57.6514 215.498 57.1713 215.122 56.8143C214.746 56.4573 214.245 56.2726 213.611 56.2726H206.321V62.7481H212.853L212.859 62.7542Z" fill="white"/>
<path id="Vector_14" d="M223.077 52.5732H227.414V74.1662H223.077V52.5732Z" fill="white"/>
<path id="Vector_15" d="M234.304 73.3965C233.082 72.7194 232.129 71.7591 231.458 70.5096C230.787 69.2662 230.455 67.832 230.455 66.207V60.5318C230.455 58.9067 230.794 57.4725 231.477 56.2292C232.16 54.9858 233.119 54.0255 234.367 53.3423C235.614 52.6652 237.05 52.3267 238.686 52.3267H242.014C243.588 52.3267 244.967 52.6529 246.164 53.3115C247.355 53.9701 248.283 54.8873 248.947 56.0753C249.605 57.2571 249.938 58.6297 249.938 60.1932H245.662C245.662 58.9621 245.33 57.965 244.659 57.214C243.989 56.4631 243.111 56.0876 242.02 56.0876H238.692C237.52 56.0876 236.579 56.5123 235.865 57.3679C235.15 58.2235 234.799 59.3376 234.799 60.7164V66.0223C234.799 67.4011 235.144 68.5153 235.833 69.3709C236.523 70.2264 237.438 70.6512 238.566 70.6512H241.958C243.067 70.6512 243.976 70.2326 244.672 69.3893C245.374 68.546 245.725 67.4381 245.725 66.0593H250C250 67.7274 249.668 69.1923 248.997 70.4542C248.327 71.716 247.386 72.6947 246.17 73.3841C244.954 74.0735 243.55 74.4183 241.958 74.4183H238.566C236.955 74.4183 235.533 74.0797 234.31 73.4026L234.304 73.3965Z" fill="white"/>
</g>
</g>
<defs>
<clipPath id="clip0_5_579">
<rect width="250" height="100" fill="white"/>
</clipPath>
</defs>
</svg>
