<svg width="25" height="25" viewBox="0 0 25 25" fill="none" xmlns="http://www.w3.org/2000/svg">
<g id="uil:signout">
<path id="Vector" d="M4.1665 12.5002C4.1665 12.7764 4.27625 13.0414 4.4716 13.2367C4.66695 13.4321 4.9319 13.5418 5.20817 13.5418H13.1144L10.7186 15.9272C10.621 16.0241 10.5435 16.1393 10.4906 16.2662C10.4377 16.3932 10.4105 16.5293 10.4105 16.6668C10.4105 16.8043 10.4377 16.9405 10.4906 17.0674C10.5435 17.1944 10.621 17.3096 10.7186 17.4064C10.8154 17.504 10.9306 17.5815 11.0576 17.6344C11.1845 17.6873 11.3207 17.7145 11.4582 17.7145C11.5957 17.7145 11.7318 17.6873 11.8588 17.6344C11.9857 17.5815 12.1009 17.504 12.1978 17.4064L16.3644 13.2397C16.4593 13.1407 16.5336 13.0239 16.5832 12.896C16.6874 12.6424 16.6874 12.3579 16.5832 12.1043C16.5336 11.9765 16.4593 11.8596 16.3644 11.7606L12.1978 7.59391C12.1006 7.49679 11.9853 7.41975 11.8584 7.36718C11.7315 7.31462 11.5955 7.28757 11.4582 7.28757C11.3208 7.28757 11.1848 7.31462 11.0579 7.36718C10.931 7.41975 10.8157 7.49679 10.7186 7.59391C10.6215 7.69104 10.5444 7.80634 10.4919 7.93324C10.4393 8.06013 10.4122 8.19614 10.4122 8.3335C10.4122 8.47085 10.4393 8.60686 10.4919 8.73376C10.5444 8.86065 10.6215 8.97596 10.7186 9.07308L13.1144 11.4585H5.20817C4.9319 11.4585 4.66695 11.5682 4.4716 11.7636C4.27625 11.9589 4.1665 12.2239 4.1665 12.5002ZM17.7082 2.0835H7.2915C6.4627 2.0835 5.66785 2.41274 5.0818 2.99879C4.49574 3.58484 4.1665 4.37969 4.1665 5.2085V8.3335C4.1665 8.60976 4.27625 8.87472 4.4716 9.07007C4.66695 9.26542 4.9319 9.37516 5.20817 9.37516C5.48444 9.37516 5.74939 9.26542 5.94474 9.07007C6.14009 8.87472 6.24984 8.60976 6.24984 8.3335V5.2085C6.24984 4.93223 6.35958 4.66728 6.55493 4.47193C6.75028 4.27658 7.01524 4.16683 7.2915 4.16683H17.7082C17.9844 4.16683 18.2494 4.27658 18.4447 4.47193C18.6401 4.66728 18.7498 4.93223 18.7498 5.2085V19.7918C18.7498 20.0681 18.6401 20.3331 18.4447 20.5284C18.2494 20.7238 17.9844 20.8335 17.7082 20.8335H7.2915C7.01524 20.8335 6.75028 20.7238 6.55493 20.5284C6.35958 20.3331 6.24984 20.0681 6.24984 19.7918V16.6668C6.24984 16.3906 6.14009 16.1256 5.94474 15.9303C5.74939 15.7349 5.48444 15.6252 5.20817 15.6252C4.9319 15.6252 4.66695 15.7349 4.4716 15.9303C4.27625 16.1256 4.1665 16.3906 4.1665 16.6668V19.7918C4.1665 20.6206 4.49574 21.4155 5.0818 22.0015C5.66785 22.5876 6.4627 22.9168 7.2915 22.9168H17.7082C18.537 22.9168 19.3318 22.5876 19.9179 22.0015C20.5039 21.4155 20.8332 20.6206 20.8332 19.7918V5.2085C20.8332 4.37969 20.5039 3.58484 19.9179 2.99879C19.3318 2.41274 18.537 2.0835 17.7082 2.0835Z" fill="#DE3CDE"/>
</g>
</svg>
