<svg width="434" height="100" viewBox="0 0 434 100" fill="none" xmlns="http://www.w3.org/2000/svg">
<g clip-path="url(#clip0_5_1724)">
<path d="M222.196 0.00229761L184.006 37.5034L196.736 50.0038L234.926 12.5027L222.196 0.00229761Z" fill="#01F801"/>
<path d="M273.113 50.0023L234.923 87.5034L247.653 100.004L285.843 62.5027L273.113 50.0023Z" fill="#01F801"/>
<path d="M196.735 50.0016L184.005 62.502L222.195 100.003L234.925 87.5027L196.735 50.0016Z" fill="#01F801"/>
<path d="M252.966 19.7771L247.65 25.003L222.188 49.9999L234.919 62.5015L260.382 37.4984L273.107 49.9999L285.838 37.4984L260.382 12.5015L252.966 19.7771Z" fill="#01F801"/>
<path d="M307.527 46.6577C306.292 45.9806 305.333 45.0204 304.65 43.7708C303.966 42.5274 303.628 41.0932 303.628 39.4682V33.793C303.628 32.168 303.966 30.7338 304.65 29.4904C305.333 28.247 306.292 27.2868 307.539 26.6035C308.787 25.9264 310.222 25.5879 311.858 25.5879H315.375C316.948 25.5879 318.328 25.8957 319.525 26.5112C320.716 27.1267 321.644 28.0008 322.308 29.1334C322.966 30.266 323.298 31.5709 323.298 33.0482H319.023C319.023 31.9402 318.691 31.0415 318.02 30.3645C317.35 29.6874 316.472 29.3488 315.381 29.3488H311.865C310.692 29.3488 309.752 29.7735 309.038 30.6291C308.323 31.4847 307.972 32.5988 307.972 33.9776V39.2836C307.972 40.6624 308.323 41.7765 309.025 42.6321C309.727 43.4877 310.655 43.9124 311.808 43.9124H315.513C316.579 43.9124 317.462 43.5308 318.165 42.7737C318.867 42.0104 319.218 41.0686 319.218 39.936V39.2589H313.125V35.5596H323.493V39.9422C323.493 41.4441 323.161 42.7798 322.49 43.9493C321.819 45.1189 320.879 46.036 319.663 46.6946C318.447 47.3532 317.068 47.6795 315.513 47.6795H311.808C310.197 47.6795 308.774 47.3409 307.533 46.6638L307.527 46.6577Z" fill="white"/>
<path d="M338.713 42.4044H330.482L328.533 47.4333H324.007L332.613 25.8403H334.563C335.923 25.8403 336.845 26.4559 337.327 27.6931L345.15 47.4333H340.625L338.706 42.4044H338.713ZM331.642 38.8281H337.547L334.626 31.0539H334.594L331.642 38.8281Z" fill="white"/>
<path d="M347.138 25.834H350.999L358.195 38.6679L365.235 25.834H369.096V47.427H364.852V33.7621L360.232 41.9672C359.919 42.5212 359.599 42.9213 359.273 43.1552C358.947 43.3891 358.577 43.5122 358.158 43.5122H356.966L351.375 33.7621V47.427H347.131V25.834H347.138Z" fill="white"/>
<path d="M373.315 46.6268C372.751 46.0913 372.468 45.3957 372.468 44.5278V25.834H389.243V29.5334H376.8V34.5315H388.296V38.2309H376.8V43.7215H389.243V47.4208H375.515C374.612 47.4208 373.879 47.1562 373.315 46.6206V46.6268Z" fill="white"/>
<path d="M307.477 73.3965C306.254 72.7194 305.302 71.7591 304.631 70.5096C303.96 69.2662 303.628 67.832 303.628 66.207V60.5318C303.628 58.9067 303.966 57.4725 304.65 56.2292C305.333 54.9858 306.292 54.0255 307.539 53.3423C308.787 52.6652 310.222 52.3267 311.858 52.3267H315.187C316.76 52.3267 318.139 52.6529 319.337 53.3115C320.528 53.9701 321.455 54.8873 322.12 56.0753C322.778 57.2571 323.11 58.6297 323.11 60.1932H318.835C318.835 58.9621 318.503 57.965 317.832 57.214C317.162 56.4631 316.284 56.0876 315.193 56.0876H311.865C310.692 56.0876 309.752 56.5123 309.038 57.3679C308.323 58.2235 307.972 59.3376 307.972 60.7164V66.0223C307.972 67.4011 308.317 68.5153 309.006 69.3709C309.696 70.2264 310.611 70.6512 311.739 70.6512H315.131C316.24 70.6512 317.149 70.2326 317.845 69.3893C318.547 68.546 318.898 67.4381 318.898 66.0593H323.173C323.173 67.7274 322.841 69.1923 322.17 70.4542C321.499 71.716 320.559 72.6947 319.343 73.3841C318.127 74.0735 316.723 74.4183 315.131 74.4183H311.739C310.128 74.4183 308.705 74.0797 307.483 73.4026L307.477 73.3965Z" fill="white"/>
<path d="M326.295 73.3661C325.731 72.8305 325.449 72.135 325.449 71.2671V52.5732H342.223V56.2726H329.78V61.2708H341.276V64.9701H329.78V70.4607H342.223V74.1601H328.495C327.592 74.1601 326.859 73.8954 326.295 73.3599V73.3661Z" fill="white"/>
<path d="M344.862 52.5732H348.723L359.28 67.2538V52.5732H363.523V74.1662H359.662L349.106 59.4857V74.1662H344.862V52.5732Z" fill="white"/>
<path d="M372.581 56.2726H365.604V52.5732H383.89V56.2726H376.913V74.1662H372.575V56.2726H372.581Z" fill="white"/>
<path d="M385.99 52.5732H397.674C399.58 52.5732 401.115 53.078 402.275 54.0875C403.435 55.0969 404.018 56.4203 404.018 58.0638V60.2244C404.018 61.2954 403.711 62.2248 403.09 63.0189C402.469 63.8129 401.579 64.41 400.407 64.8224V64.884C401.078 65.3148 401.586 65.8073 401.93 66.3674C402.275 66.9275 402.614 67.6908 402.952 68.6818L404.714 74.1724H400.219L398.552 69.0511C398.282 68.1648 397.9 67.5061 397.423 67.0753C396.941 66.6444 396.345 66.429 395.631 66.429H390.321V74.1724H385.983V52.5794L385.99 52.5732ZM396.859 62.7542C397.737 62.7542 398.433 62.5203 398.934 62.0587C399.436 61.597 399.686 60.9938 399.686 60.2551V58.2485C399.686 57.6514 399.498 57.1713 399.122 56.8143C398.746 56.4573 398.245 56.2726 397.611 56.2726H390.321V62.7481H396.853L396.859 62.7542Z" fill="white"/>
<path d="M407.077 52.5732H411.415V74.1662H407.077V52.5732Z" fill="white"/>
<path d="M418.304 73.3965C417.081 72.7194 416.129 71.7591 415.458 70.5096C414.787 69.2662 414.455 67.832 414.455 66.207V60.5318C414.455 58.9067 414.793 57.4725 415.477 56.2292C416.16 54.9858 417.119 54.0255 418.366 53.3423C419.614 52.6652 421.049 52.3267 422.685 52.3267H426.014C427.587 52.3267 428.966 52.6529 430.164 53.3115C431.355 53.9701 432.282 54.8873 432.947 56.0753C433.605 57.2571 433.937 58.6297 433.937 60.1932H429.662C429.662 58.9621 429.33 57.965 428.659 57.214C427.989 56.4631 427.111 56.0876 426.02 56.0876H422.692C421.519 56.0876 420.579 56.5123 419.865 57.3679C419.15 58.2235 418.799 59.3376 418.799 60.7164V66.0223C418.799 67.4011 419.144 68.5153 419.833 69.3709C420.523 70.2264 421.438 70.6512 422.566 70.6512H425.958C427.067 70.6512 427.976 70.2326 428.672 69.3893C429.374 68.546 429.725 67.4381 429.725 66.0593H434C434 67.7274 433.668 69.1923 432.997 70.4542C432.326 71.716 431.386 72.6947 430.17 73.3841C428.954 74.0735 427.55 74.4183 425.958 74.4183H422.566C420.955 74.4183 419.532 74.0797 418.31 73.4026L418.304 73.3965Z" fill="white"/>
</g>
<path d="M15.81 46.06C15.81 47.86 15.22 49.31 14.04 50.41C12.86 51.51 11.09 52.06 8.73 52.06H4.5V61H2.4V40.03H8.73C11.07 40.03 12.83 40.58 14.01 41.68C15.21 42.78 15.81 44.24 15.81 46.06ZM8.73 50.26C12.01 50.26 13.65 48.86 13.65 46.06C13.65 44.66 13.26 43.6 12.48 42.88C11.7 42.16 10.45 41.8 8.73 41.8H4.5V50.26H8.73ZM25.0036 61.24C23.4636 61.24 22.0736 60.9 20.8336 60.22C19.6136 59.52 18.6436 58.54 17.9236 57.28C17.2236 56 16.8736 54.51 16.8736 52.81C16.8736 51.11 17.2336 49.63 17.9536 48.37C18.6736 47.09 19.6536 46.11 20.8936 45.43C22.1336 44.73 23.5236 44.38 25.0636 44.38C26.6036 44.38 27.9936 44.73 29.2336 45.43C30.4936 46.11 31.4736 47.09 32.1736 48.37C32.8936 49.63 33.2536 51.11 33.2536 52.81C33.2536 54.49 32.8936 55.97 32.1736 57.25C31.4536 58.53 30.4636 59.52 29.2036 60.22C27.9436 60.9 26.5436 61.24 25.0036 61.24ZM25.0036 59.41C26.0836 59.41 27.0836 59.17 28.0036 58.69C28.9236 58.19 29.6636 57.45 30.2236 56.47C30.8036 55.47 31.0936 54.25 31.0936 52.81C31.0936 51.37 30.8136 50.16 30.2536 49.18C29.6936 48.18 28.9536 47.44 28.0336 46.96C27.1136 46.46 26.1136 46.21 25.0336 46.21C23.9536 46.21 22.9536 46.46 22.0336 46.96C21.1136 47.44 20.3736 48.18 19.8136 49.18C19.2736 50.16 19.0036 51.37 19.0036 52.81C19.0036 54.25 19.2736 55.47 19.8136 56.47C20.3736 57.45 21.1036 58.19 22.0036 58.69C22.9236 59.17 23.9236 59.41 25.0036 59.41ZM57.1816 44.62L52.0516 61H49.9516L45.4216 47.26L40.8916 61H38.7616L33.6316 44.62H35.7616L39.8416 58.87L44.4316 44.62H46.5316L51.0616 58.9L55.1116 44.62H57.1816ZM73.3645 51.97C73.3645 52.69 73.3445 53.24 73.3045 53.62H59.7145C59.7745 54.86 60.0745 55.92 60.6145 56.8C61.1545 57.68 61.8645 58.35 62.7445 58.81C63.6245 59.25 64.5845 59.47 65.6245 59.47C66.9845 59.47 68.1245 59.14 69.0445 58.48C69.9845 57.82 70.6045 56.93 70.9045 55.81H73.1245C72.7245 57.41 71.8645 58.72 70.5445 59.74C69.2445 60.74 67.6045 61.24 65.6245 61.24C64.0845 61.24 62.7045 60.9 61.4845 60.22C60.2645 59.52 59.3045 58.54 58.6045 57.28C57.9245 56 57.5845 54.51 57.5845 52.81C57.5845 51.11 57.9245 49.62 58.6045 48.34C59.2845 47.06 60.2345 46.08 61.4545 45.4C62.6745 44.72 64.0645 44.38 65.6245 44.38C67.1845 44.38 68.5445 44.72 69.7045 45.4C70.8845 46.08 71.7845 47 72.4045 48.16C73.0445 49.3 73.3645 50.57 73.3645 51.97ZM71.2345 51.91C71.2545 50.69 71.0045 49.65 70.4845 48.79C69.9845 47.93 69.2945 47.28 68.4145 46.84C67.5345 46.4 66.5745 46.18 65.5345 46.18C63.9745 46.18 62.6445 46.68 61.5445 47.68C60.4445 48.68 59.8345 50.09 59.7145 51.91H71.2345ZM77.8066 47.53C78.2666 46.51 78.9666 45.72 79.9066 45.16C80.8666 44.6 82.0366 44.32 83.4166 44.32V46.51H82.8466C81.3266 46.51 80.1066 46.92 79.1866 47.74C78.2666 48.56 77.8066 49.93 77.8066 51.85V61H75.7066V44.62H77.8066V47.53ZM99.8958 51.97C99.8958 52.69 99.8758 53.24 99.8358 53.62H86.2458C86.3058 54.86 86.6058 55.92 87.1458 56.8C87.6858 57.68 88.3958 58.35 89.2758 58.81C90.1558 59.25 91.1158 59.47 92.1558 59.47C93.5158 59.47 94.6558 59.14 95.5758 58.48C96.5158 57.82 97.1358 56.93 97.4358 55.81H99.6558C99.2558 57.41 98.3958 58.72 97.0758 59.74C95.7758 60.74 94.1358 61.24 92.1558 61.24C90.6158 61.24 89.2358 60.9 88.0158 60.22C86.7958 59.52 85.8358 58.54 85.1358 57.28C84.4558 56 84.1158 54.51 84.1158 52.81C84.1158 51.11 84.4558 49.62 85.1358 48.34C85.8158 47.06 86.7658 46.08 87.9858 45.4C89.2058 44.72 90.5958 44.38 92.1558 44.38C93.7158 44.38 95.0758 44.72 96.2358 45.4C97.4158 46.08 98.3158 47 98.9358 48.16C99.5758 49.3 99.8958 50.57 99.8958 51.97ZM97.7658 51.91C97.7858 50.69 97.5358 49.65 97.0158 48.79C96.5158 47.93 95.8258 47.28 94.9458 46.84C94.0658 46.4 93.1058 46.18 92.0658 46.18C90.5058 46.18 89.1758 46.68 88.0758 47.68C86.9758 48.68 86.3658 50.09 86.2458 51.91H97.7658ZM101.278 52.78C101.278 51.1 101.618 49.63 102.298 48.37C102.978 47.09 103.908 46.11 105.088 45.43C106.288 44.73 107.638 44.38 109.138 44.38C110.578 44.38 111.878 44.73 113.038 45.43C114.198 46.13 115.048 47.04 115.588 48.16V38.8H117.688V61H115.588V57.34C115.088 58.48 114.268 59.42 113.128 60.16C111.988 60.88 110.648 61.24 109.108 61.24C107.608 61.24 106.258 60.89 105.058 60.19C103.878 59.49 102.948 58.5 102.268 57.22C101.608 55.94 101.278 54.46 101.278 52.78ZM115.588 52.81C115.588 51.49 115.318 50.33 114.778 49.33C114.238 48.33 113.498 47.56 112.558 47.02C111.638 46.48 110.618 46.21 109.498 46.21C108.338 46.21 107.298 46.47 106.378 46.99C105.458 47.51 104.728 48.27 104.188 49.27C103.668 50.25 103.408 51.42 103.408 52.78C103.408 54.12 103.668 55.3 104.188 56.32C104.728 57.32 105.458 58.09 106.378 58.63C107.298 59.15 108.338 59.41 109.498 59.41C110.618 59.41 111.638 59.14 112.558 58.6C113.498 58.06 114.238 57.29 114.778 56.29C115.318 55.29 115.588 54.13 115.588 52.81ZM129.784 48.25C130.324 47.11 131.154 46.18 132.274 45.46C133.414 44.74 134.754 44.38 136.294 44.38C137.794 44.38 139.134 44.73 140.314 45.43C141.494 46.11 142.414 47.09 143.074 48.37C143.754 49.63 144.094 51.1 144.094 52.78C144.094 54.46 143.754 55.94 143.074 57.22C142.414 58.5 141.484 59.49 140.284 60.19C139.104 60.89 137.774 61.24 136.294 61.24C134.734 61.24 133.384 60.89 132.244 60.19C131.124 59.47 130.304 58.54 129.784 57.4V61H127.714V38.8H129.784V48.25ZM141.964 52.78C141.964 51.42 141.694 50.25 141.154 49.27C140.634 48.27 139.914 47.51 138.994 46.99C138.074 46.47 137.034 46.21 135.874 46.21C134.754 46.21 133.724 46.48 132.784 47.02C131.864 47.56 131.134 48.33 130.594 49.33C130.054 50.33 129.784 51.49 129.784 52.81C129.784 54.13 130.054 55.29 130.594 56.29C131.134 57.29 131.864 58.06 132.784 58.6C133.724 59.14 134.754 59.41 135.874 59.41C137.034 59.41 138.074 59.15 138.994 58.63C139.914 58.09 140.634 57.32 141.154 56.32C141.694 55.3 141.964 54.12 141.964 52.78ZM159.959 44.62L150.239 68.71H148.049L151.229 60.91L144.509 44.62H146.819L152.399 58.6L157.799 44.62H159.959Z" fill="white"/>
<defs>
<clipPath id="clip0_5_1724">
<rect width="250" height="100" fill="white" transform="translate(184)"/>
</clipPath>
</defs>
</svg>
