<svg width="100" height="100" viewBox="0 0 100 100" fill="none" xmlns="http://www.w3.org/2000/svg">
<path d="M90.625 81.25C90.625 82.0788 90.2958 82.8737 89.7097 83.4597C89.1237 84.0458 88.3288 84.375 87.5 84.375H12.5C11.6712 84.375 10.8763 84.0458 10.2903 83.4597C9.70424 82.8737 9.375 82.0788 9.375 81.25C9.375 80.4212 9.70424 79.6263 10.2903 79.0403C10.8763 78.4542 11.6712 78.125 12.5 78.125H87.5C88.3288 78.125 89.1237 78.4542 89.7097 79.0403C90.2958 79.6263 90.625 80.4212 90.625 81.25ZM90.625 21.875V65.625C90.625 67.2826 89.9665 68.8723 88.7944 70.0444C87.6223 71.2165 86.0326 71.875 84.375 71.875H15.625C13.9674 71.875 12.3777 71.2165 11.2056 70.0444C10.0335 68.8723 9.375 67.2826 9.375 65.625V21.875C9.375 20.2174 10.0335 18.6277 11.2056 17.4556C12.3777 16.2835 13.9674 15.625 15.625 15.625H84.375C86.0326 15.625 87.6223 16.2835 88.7944 17.4556C89.9665 18.6277 90.625 20.2174 90.625 21.875ZM64.0625 43.75C64.0623 43.2241 63.9294 42.7067 63.6761 42.2457C63.4228 41.7848 63.0572 41.3953 62.6133 41.1133L45.4258 30.1758C44.9534 29.8756 44.409 29.7079 43.8496 29.6901C43.2902 29.6722 42.7362 29.805 42.2456 30.0744C41.755 30.3438 41.3458 30.7401 41.0607 31.2218C40.7757 31.7034 40.6252 32.2528 40.625 32.8125V54.6875C40.6252 55.2472 40.7757 55.7966 41.0607 56.2782C41.3458 56.7599 41.755 57.1562 42.2456 57.4256C42.7362 57.695 43.2902 57.8278 43.8496 57.8099C44.409 57.7921 44.9534 57.6244 45.4258 57.3242L62.6133 46.3867C63.0572 46.1047 63.4228 45.7152 63.6761 45.2543C63.9294 44.7933 64.0623 44.2759 64.0625 43.75Z" fill="#01F801"/>
</svg>
